<svg width="202" height="202" viewBox="0 0 202 202" fill="none" xmlns="http://www.w3.org/2000/svg">
<path d="M3.96875 149L13.5146 50.1719H47.0376L56.415 149H37.7163L36.3125 133.053H24.4082L23.1729 149H3.96875ZM25.812 117.274H34.7964L30.4727 67.0176H29.5742L25.812 117.274ZM62.4795 149V50.1719H92.5771L100.888 110.423L109.142 50.1719H139.521V149H121.439V77.7988L110.097 149H92.3525L80.3359 77.7988V149H62.4795ZM168.664 149.898C154.551 149.898 147.494 139.791 147.494 119.576V76.9565C147.494 58.5011 155.58 49.2734 171.752 49.2734C178.415 49.2734 183.525 50.6211 187.082 53.3164C190.638 55.9743 193.09 59.8675 194.438 64.9961C195.785 70.1247 196.459 76.3763 196.459 83.751H177.143V74.9912C177.143 72.8574 176.843 71.0793 176.244 69.6567C175.683 68.1968 174.485 67.4668 172.65 67.4668C170.367 67.4668 168.851 68.2342 168.102 69.769C167.391 71.3039 167.035 72.9884 167.035 74.8228V122.721C167.035 125.379 167.372 127.55 168.046 129.234C168.757 130.882 170.124 131.705 172.145 131.705C174.241 131.705 175.626 130.882 176.3 129.234C177.012 127.55 177.367 125.341 177.367 122.608V108.514H172.089V91.4438H196.234V149H188.317L184.948 140.689C181.504 146.829 176.076 149.898 168.664 149.898Z" fill="black"/>
</svg>
